<?xml version="1.0" standalone="no"?>
<!DOCTYPE svg PUBLIC "-//W3C//DTD SVG 1.1//EN" "http://www.w3.org/Graphics/SVG/1.1/DTD/svg11.dtd">
<svg t="1713411600000" class="icon" viewBox="0 0 1024 1024" version="1.1" xmlns="http://www.w3.org/2000/svg" p-id="61001" xmlns:xlink="http://www.w3.org/1999/xlink" width="200" height="200">
  <path d="M128 416c0-21.333333 8.533333-42.666667 23.616-57.749333L358.250667 151.616C373.333333 136.533333 394.666667 128 416 128h202.666667c33.962667 0 66.517333 13.482667 90.538666 37.504l186.624 186.624c50.005333 50.005333 50.005333 131.072 0 181.077333L533.205333 895.829333c-50.005333 50.005333-131.072 50.005333-181.077333 0L165.504 709.205333A128 128 0 0 1 128 618.666667V416z" fill="#FC7032" p-id="61002"></path>
  <path d="M218.965333 396.032l486.997334 486.997333a64 64 0 0 1-20.757334 12.8 128 128 0 0 1-93.184-0.938666 127.104 127.104 0 0 1-39.893333-26.794667L165.504 709.205333A128 128 0 0 1 128 618.666667V416c0-21.333333 8.533333-42.666667 23.616-57.749333L218.965333 291.84v104.192z" fill="#FF9A68" p-id="61003"></path>
  <circle cx="490.666667" cy="320" r="74.666667" fill="#FFFFFF" p-id="61004"></circle>
  <circle cx="490.666667" cy="320" r="32" fill="#FC7032" opacity="0.88" p-id="61005"></circle>
</svg>
